#!OML:ASF E:\emotionWalksFemale\Project 1\Capture day 1\Session 1\Female1.ASF
:FULLY-SPECIFIED
:DEGREES
117
root 8.76417 15.1216 42.2128 -180.355 -20.2827 -178.779
lowerback 7.35707 3.0997 3.83845
upperback -4.31823 4.47689 -0.69826
thorax -8.34632 1.91928 -3.5211
lowerneck -2.30738 15.0505 8.3592
upperneck 12.2815 19.9722 -3.30771
head 5.25561 9.91747 -1.06405
rclavicle 2.70844e-015 -1.49089e-015
rhumerus -51.1459 18.9367 -105.695
rradius 35.3115
rwrist 5.87954
rhand 163.182 -69.2991
rfingers 7.12502
rthumb -170.589 -39.5292
lclavicle 2.70844e-015 -1.49089e-015
lhumerus -43.4265 -8.66854 91.1838
lradius 38.687
lwrist -10.8474
lhand 2.08428 -36.5733
lfingers 7.12502
lthumb 27.5852 -8.57495
rfemur -4.3178 8.88689 28.819
rtibia 26.1342
rfoot -32.0719 -33.1361
rtoes 28.2082
lfemur -12.9991 -25.1005 -22.2984
ltibia 31.895
lfoot -22.4648 7.66338
ltoes -36.6916
118
root 8.76547 15.1224 42.2112 -180.32 -20.3655 -178.852
lowerback 7.35711 3.1042 3.80429
upperback -4.31023 4.47593 -0.743738
thorax -8.3365 1.92004 -3.54971
lowerneck -2.38076 15.0179 8.35319
upperneck 12.3241 19.9194 -3.26683
head 5.273 9.89227 -1.04874
rclavicle 6.69035e-014 5.1684e-015
rhumerus -51.0193 18.8313 -105.697
rradius 35.1555
rwrist 5.98181
rhand 163.212 -69.2905
rfingers 7.12502
rthumb -170.56 -39.5219
lclavicle 6.69035e-014 5.1684e-015
lhumerus -43.4585 -8.82995 91.2452
lradius 38.5479
lwrist -11.2271
lhand 0.837021 -36.9855
lfingers 7.12502
lthumb 26.3918 -8.80237
rfemur -4.31476 8.80607 28.7563
rtibia 26.1328
rfoot -32.0753 -33.1821
rtoes 28.3744
lfemur -13.0229 -25.1015 -22.3488
ltibia 31.8789
lfoot -22.5777 7.33482
ltoes -35.9715
119
root 8.76546 15.1238 42.2124 -180.162 -20.4677 -179.041
lowerback 7.33938 3.1068 3.71672
upperback -4.34314 4.46063 -0.845485
thorax -8.36114 1.91264 -3.60673
lowerneck -2.46504 14.9709 8.32003
upperneck 12.3784 19.8356 -3.12837
head 5.2814 9.85621 -1.00424
rclavicle -6.33626e-015 9.74045e-015
rhumerus -50.9945 18.7471 -105.73
rradius 35.0713
rwrist 6.03629
rhand 163.345 -69.266
rfingers 7.12502
rthumb -170.431 -39.5033
lclavicle -6.33626e-015 9.74045e-015
lhumerus -43.441 -8.88247 91.2095
lradius 38.4317
lwrist -11.5285
lhand -0.436576 -37.4547
lfingers 7.12502
lthumb 25.1721 -9.09448
rfemur -4.43188 8.72841 28.5427
rtibia 26.1563
rfoot -32.0154 -33.2486
rtoes 28.1276
lfemur -13.1434 -25.12 -22.4809
ltibia 31.8381
lfoot -22.5362 7.18524
ltoes -35.8788
120
root 8.76854 15.1226 42.2093 -180.265 -20.5748 -178.922
lowerback 7.40126 3.06641 3.78575
upperback -4.32867 4.42066 -0.803649
thorax -8.38357 1.89025 -3.59949
lowerneck -2.32455 14.9456 8.35844
upperneck 12.1955 19.8162 -3.2119
head 5.2125 9.84877 -1.05336
rclavicle 3.65018e-014 -3.37934e-015
rhumerus -51.0184 18.6757 -105.705
rradius 35.0746
rwrist 6.15758
rhand 163.425 -69.2678
rfingers 7.12502
rthumb -170.354 -39.5086
lclavicle 3.65018e-014 -3.37934e-015
lhumerus -43.3843 -8.74876 91.11
lradius 38.6461
lwrist -10.9106
lhand -0.632109 -37.408
lfingers 7.12502
lthumb 24.9848 -9.02165
rfemur -4.34453 8.74202 28.7123
rtibia 26.1444
rfoot -32.0683 -33.3631
rtoes 27.6501
lfemur -13.0899 -25.1094 -22.3655
ltibia 31.8315
lfoot -22.4849 7.12809
ltoes -35.9204
121
root 8.76966 15.1228 42.2079 -180.292 -20.6488 -178.875
lowerback 7.41025 3.04273 3.81363
upperback -4.33257 4.3933 -0.79201
thorax -8.39439 1.87517 -3.59991
lowerneck -2.0134 14.9057 8.54641
upperneck 11.8443 19.8077 -3.5483
head 5.10472 9.84376 -1.21116
rclavicle -1.38292e-013 -3.57812e-015
rhumerus -51.0068 18.5533 -105.629
rradius 35.0646
rwrist 6.5146
rhand 163.309 -69.4027
rfingers 7.12502
rthumb -170.467 -39.6383
lclavicle -1.38292e-013 -3.57812e-015
lhumerus -43.4535 -8.91578 91.2034
lradius 38.5281
lwrist -11.2259
lhand 0.0559393 -36.9838
lfingers 7.12502
lthumb 25.644 -8.69076
rfemur -4.30727 8.70133 28.7731
rtibia 26.1086
rfoot -32.2309 -33.291
rtoes 27.7053
lfemur -13.1065 -25.0515 -22.3239
ltibia 31.8453
lfoot -22.4188 7.12147
ltoes -36.2207
122
root 8.76973 15.1244 42.2083 -180.296 -20.7008 -178.792
lowerback 7.1418 3.07875 3.70798
upperback -4.19589 4.43122 -0.619708
thorax -8.10701 1.91803 -3.33904
lowerneck -1.90009 14.8481 8.47367
upperneck 11.5891 19.7777 -3.86246
head 5.02928 9.81556 -1.31337
rclavicle 9.52427e-014 1.38155e-014
rhumerus -50.8433 18.6774 -105.307
rradius 35.0492
rwrist 6.66734
rhand 163.172 -69.5111
rfingers 7.12502
rthumb -170.599 -39.7407
lclavicle 9.52427e-014 1.38155e-014
lhumerus -43.2786 -8.85452 91.4423
lradius 38.6099
lwrist -10.9845
lhand 1.10414 -36.5386
lfingers 7.12502
lthumb 26.6475 -8.39416
rfemur -4.30835 8.62028 28.8431
rtibia 26.0351
rfoot -32.2215 -33.389
rtoes 27.831
lfemur -13.1788 -25.0572 -22.2211
ltibia 31.893
lfoot -22.449 7.00761
ltoes -35.9814
123
root 8.76965 15.1258 42.2076 -180.301 -20.7514 -178.755
lowerback 6.30311 3.17232 3.09907
upperback -3.69664 4.49516 -0.0935733
thorax -7.16392 2.03468 -2.37768
lowerneck -2.08509 14.8016 8.0064
upperneck 11.336 19.7947 -4.37881
head 4.98677 9.78064 -1.3966
rclavicle 7.63116e-014 2.19906e-015
rhumerus -50.4314 19.4337 -104.545
rradius 35.1437
rwrist 6.06481
rhand 163.263 -69.4087
rfingers 7.12502
rthumb -170.511 -39.6424
lclavicle 7.63116e-014 2.19906e-015
lhumerus -42.5581 -8.26866 92.0124
lradius 38.3736
lwrist -11.7215
lhand 0.243671 -36.7585
lfingers 7.12502
lthumb 25.8237 -8.49148
rfemur -4.3074 8.56332 28.8781
rtibia 26.02
rfoot -32.139 -33.5612
rtoes 27.8201
lfemur -13.1861 -25.1041 -22.1655
ltibia 31.9013
lfoot -22.4708 6.88807
ltoes -35.7892
124
root 8.77047 15.1263 42.2061 -180.223 -20.7592 -178.807
lowerback 6.24264 3.16748 3.1687
upperback -3.70279 4.48666 -0.192739
thorax -7.12288 2.02572 -2.51502
lowerneck -2.0905 14.8091 8.13246
upperneck 11.3834 19.795 -4.35556
head 5.01267 9.78621 -1.40263
rclavicle 3.51282e-014 8.03835e-015
rhumerus -50.4746 19.4183 -104.708
rradius 35.1825
rwrist 5.82132
rhand 163.403 -69.3653
rfingers 7.12502
rthumb -170.376 -39.6051
lclavicle 3.51282e-014 8.03835e-015
lhumerus -42.4893 -8.33518 91.8864
lradius 38.5344
lwrist -11.3506
lhand 1.05051 -36.5854
lfingers 7.12502
lthumb 26.5962 -8.4331
rfemur -4.36902 8.59936 28.8246
rtibia 26.0415
rfoot -32.1486 -33.467
rtoes 28.0126
lfemur -13.2391 -24.9854 -22.1768
ltibia 31.8762
lfoot -22.4102 6.78671
ltoes -35.8963
125
root 8.77067 15.1271 42.204 -180.122 -20.7536 -178.886
lowerback 6.74429 3.154 3.53804
upperback -4.06203 4.50111 -0.556011
thorax -7.74243 1.97814 -3.15229
lowerneck -1.91085 14.7864 8.5178
upperneck 11.5715 19.7206 -4.10378
head 5.05073 9.77693 -1.39127
rclavicle 1.08462e-013 1.90833e-014
rhumerus -50.8139 18.8071 -105.181
rradius 35.1364
rwrist 6.05671
rhand 163.381 -69.3748
rfingers 7.12502
rthumb -170.397 -39.6137
lclavicle 1.08462e-013 1.90833e-014
lhumerus -43.0074 -8.84802 91.5994
lradius 38.5006
lwrist -11.4981
lhand -0.422622 -36.8341
lfingers 7.12502
lthumb 25.1855 -8.47585
rfemur -4.45276 8.60316 28.7366
rtibia 26.0784
rfoot -32.153 -33.3442
rtoes 28.2536
lfemur -13.2859 -24.9499 -22.2166
ltibia 31.8368
lfoot -22.4523 6.63031
ltoes -35.1245
